<?xml version="1.0" encoding="utf-8"?>
<!-- Generator: Adobe Illustrator 17.0.0, SVG Export Plug-In . SVG Version: 6.00 Build 0)  -->
<!DOCTYPE svg PUBLIC "-//W3C//DTD SVG 1.1//EN" "http://www.w3.org/Graphics/SVG/1.1/DTD/svg11.dtd">
<svg version="1.1" id="Capa_1" xmlns="http://www.w3.org/2000/svg" xmlns:xlink="http://www.w3.org/1999/xlink" x="0px" y="0px"
	 width="841.89px" height="595.28px" viewBox="0 0 841.89 595.28" enable-background="new 0 0 841.89 595.28" xml:space="preserve">
<g>
	<path fill="#FFFFFF" stroke="#FFFFFF" stroke-miterlimit="10" d="M420.945,0c-164.114,0-297.64,133.514-297.64,297.64
		s133.526,297.64,297.64,297.64s297.64-133.514,297.64-297.64S585.059,0,420.945,0z M420.945,572.385
		c-151.487,0-274.745-123.257-274.745-274.745S269.458,22.895,420.945,22.895S695.69,146.153,695.69,297.64
		S572.432,572.385,420.945,572.385z"/>
	<path fill="#FFFFFF" stroke="#FFFFFF" stroke-miterlimit="10" d="M532.068,186.517c-4.476-4.476-11.711-4.476-16.187,0
		l-94.936,94.936l-94.936-94.936c-4.476-4.476-11.711-4.476-16.187,0c-4.476,4.476-4.476,11.711,0,16.187l94.936,94.936
		l-94.936,94.936c-4.476,4.476-4.476,11.711,0,16.187c2.232,2.232,5.163,3.354,8.094,3.354s5.861-1.122,8.094-3.354l94.936-94.936
		l94.936,94.936c2.232,2.232,5.163,3.354,8.094,3.354s5.861-1.122,8.094-3.354c4.476-4.476,4.476-11.711,0-16.187l-94.936-94.936
		l94.936-94.936C536.544,198.228,536.544,190.993,532.068,186.517z"/>
</g>
</svg>
