<?xml version="1.0" encoding="utf-8"?>
<!-- Generator: Adobe Illustrator 17.0.0, SVG Export Plug-In . SVG Version: 6.00 Build 0)  -->
<!DOCTYPE svg PUBLIC "-//W3C//DTD SVG 1.1//EN" "http://www.w3.org/Graphics/SVG/1.1/DTD/svg11.dtd">
<svg version="1.1" id="Layer_1" xmlns="http://www.w3.org/2000/svg" xmlns:xlink="http://www.w3.org/1999/xlink" x="0px" y="0px"
	 width="24px" height="24px" viewBox="0 0 24 24" enable-background="new 0 0 24 24" xml:space="preserve">
<path fill="#FFFFFF" d="M24,13.616v-3.232c-1.651-0.587-2.694-0.752-3.219-2.019V8.364c-0.527-1.271,0.1-2.134,0.847-3.707
	l-2.285-2.285c-1.561,0.742-2.433,1.375-3.707,0.847h-0.001C14.366,2.693,14.2,1.643,13.616,0h-3.232
	C9.802,1.635,9.635,2.692,8.365,3.219H8.364C7.093,3.747,6.232,3.121,4.657,2.372L2.372,4.657c0.745,1.568,1.375,2.434,0.847,3.707
	C2.692,9.635,1.635,9.802,0,10.384v3.232c1.632,0.58,2.692,0.749,3.219,2.019c0.53,1.282-0.114,2.166-0.847,3.707l2.285,2.286
	c1.562-0.743,2.434-1.375,3.707-0.847h0.001c1.27,0.526,1.436,1.579,2.019,3.219h3.232c0.582-1.636,0.75-2.69,2.027-3.222h0.001
	c1.262-0.524,2.12,0.101,3.698,0.851l2.285-2.286c-0.744-1.563-1.375-2.433-0.848-3.706C21.306,14.366,22.367,14.197,24,13.616z
	 M12,16c-2.209,0-4-1.791-4-4s1.791-4,4-4s4,1.791,4,4S14.209,16,12,16z"/>
</svg>
