<?xml version="1.0" encoding="utf-8"?>
<!-- Generator: Adobe Illustrator 17.0.0, SVG Export Plug-In . SVG Version: 6.00 Build 0)  -->
<!DOCTYPE svg PUBLIC "-//W3C//DTD SVG 1.1//EN" "http://www.w3.org/Graphics/SVG/1.1/DTD/svg11.dtd">
<svg version="1.1" id="Capa_1" xmlns="http://www.w3.org/2000/svg" xmlns:xlink="http://www.w3.org/1999/xlink" x="0px" y="0px"
	 width="841.89px" height="595.28px" viewBox="0 0 841.89 595.28" enable-background="new 0 0 841.89 595.28" xml:space="preserve">
<g>
	<path fill="#FFFFFF" d="M338.113,87.592c0,0,2.776-0.368,7.981-1.057c1.303-0.157,2.75-0.4,4.358-0.542
		c1.61-0.131,3.368-0.274,5.268-0.428c1.901-0.142,3.945-0.348,6.129-0.47c2.186-0.056,4.509-0.115,6.964-0.177
		c1.228-0.031,2.489-0.063,3.782-0.096c1.293,0.002,2.618,0.057,3.975,0.084c2.713,0.084,5.558,0.101,8.518,0.25
		c2.956,0.222,6.033,0.453,9.225,0.693c1.601,0.082,3.21,0.353,4.858,0.541c1.646,0.207,3.32,0.417,5.021,0.63
		c13.577,1.885,28.785,5.253,44.729,10.961c15.96,5.635,32.552,13.786,48.801,24.449c2.078,1.264,4.014,2.766,6.039,4.165
		c1.004,0.713,2.012,1.427,3.023,2.144l1.519,1.078c0.499,0.37,0.982,0.763,1.475,1.145c1.963,1.539,3.939,3.086,5.926,4.643
		l1.491,1.172l1.439,1.242c0.961,0.83,1.924,1.662,2.891,2.496c3.938,3.258,7.602,6.902,11.378,10.497
		c1.855,1.831,3.617,3.772,5.442,5.668c0.906,0.954,1.814,1.911,2.724,2.869c0.865,0.999,1.733,2,2.602,3.003
		c14.014,15.95,26.255,34.461,35.594,54.748c1.126,2.554,2.253,5.114,3.383,7.677c1.089,2.581,2.029,5.228,3.052,7.845l1.497,3.945
		l1.31,4.017l1.311,4.022c0.426,1.345,0.909,2.674,1.248,4.046c0.739,2.726,1.479,5.455,2.22,8.186
		c0.179,0.684,0.384,1.363,0.541,2.052l0.452,2.075l0.904,4.151l0.903,4.154c0.316,1.382,0.486,2.792,0.736,4.187l1.395,8.469
		l0.926,8.347c0.135,1.4,0.348,2.762,0.42,4.193l0.257,4.27l0.254,4.268l0.126,2.133c0.035,0.71,0.021,1.416,0.034,2.124
		c0.025,2.83,0.05,5.657,0.076,8.482c0.044,1.413-0.061,2.823-0.108,4.233l-0.175,4.227l-0.176,4.221l-0.375,4.203
		c-0.278,2.797-0.466,5.599-0.817,8.378c-0.395,2.774-0.789,5.543-1.182,8.306c-3.496,22.059-10.286,43.19-19.464,62.335
		c-0.565,1.201-1.13,2.399-1.693,3.595c-0.617,1.169-1.233,2.335-1.847,3.499c-1.245,2.318-2.416,4.664-3.708,6.928
		c-2.665,4.482-5.2,8.985-8.114,13.185c-0.705,1.064-1.408,2.126-2.108,3.185l-1.05,1.585l-1.118,1.532
		c-1.492,2.036-2.976,4.06-4.45,6.073c-0.372,0.501-0.73,1.01-1.111,1.501l-1.171,1.448c-0.779,0.964-1.556,1.924-2.331,2.882
		c-1.572,1.895-3.03,3.864-4.689,5.643c-12.763,14.659-26.532,26.996-40.376,36.733c-13.809,9.804-27.539,17.161-40.103,22.644
		c-1.58,0.665-3.135,1.32-4.664,1.964c-1.536,0.626-3.011,1.321-4.531,1.833c-3.008,1.094-5.908,2.148-8.695,3.161
		c-2.809,0.943-5.544,1.728-8.133,2.542c-1.299,0.393-2.56,0.804-3.805,1.155c-1.254,0.318-2.477,0.628-3.668,0.93
		c-2.38,0.603-4.633,1.174-6.753,1.711c-2.134,0.473-4.156,0.826-6.024,1.203c-1.87,0.365-3.601,0.702-5.186,1.011
		c-1.587,0.298-3.049,0.456-4.347,0.657c-5.199,0.743-7.971,1.139-7.971,1.139s2.753-0.508,7.916-1.46
		c1.287-0.253,2.736-0.469,4.307-0.83c1.568-0.372,3.28-0.778,5.129-1.217c1.847-0.448,3.84-0.89,5.948-1.433
		c2.093-0.598,4.318-1.234,6.668-1.906c1.174-0.336,2.38-0.68,3.617-1.034c1.227-0.386,2.468-0.833,3.747-1.262
		c2.549-0.887,5.239-1.748,7.998-2.767c2.733-1.088,5.577-2.22,8.528-3.395c1.489-0.551,2.933-1.287,4.435-1.952
		c1.494-0.683,3.014-1.378,4.558-2.083c12.267-5.816,25.587-13.49,39.001-23.397c0.859-0.59,1.681-1.239,2.502-1.899
		c0.825-0.653,1.655-1.31,2.488-1.97c1.66-1.328,3.365-2.634,5.034-4.015c1.632-1.425,3.279-2.864,4.941-4.316
		c0.831-0.725,1.665-1.454,2.503-2.186c0.836-0.733,1.617-1.536,2.433-2.306c1.619-1.553,3.252-3.12,4.898-4.699
		c0.841-0.771,1.617-1.614,2.409-2.447c0.792-0.833,1.586-1.669,2.384-2.509c0.798-0.839,1.598-1.682,2.402-2.527l1.208-1.27
		l1.15-1.332c1.535-1.779,3.082-3.57,4.639-5.374c1.6-1.767,2.998-3.724,4.51-5.604c0.744-0.95,1.491-1.903,2.24-2.859l1.125-1.436
		c0.365-0.487,0.709-0.992,1.065-1.488c1.413-1.993,2.835-3.998,4.265-6.015l1.072-1.516l1.003-1.569
		c0.67-1.047,1.341-2.097,2.014-3.15c2.779-4.158,5.2-8.596,7.775-12.996c1.242-2.226,2.364-4.531,3.56-6.808
		c0.59-1.143,1.182-2.288,1.774-3.436c0.539-1.174,1.079-2.351,1.62-3.53c4.496-9.358,8.115-19.297,11.303-29.473
		c0.745-2.562,1.492-5.131,2.241-7.708c0.626-2.609,1.254-5.225,1.883-7.847c0.298-1.315,0.675-2.614,0.911-3.945l0.757-3.988
		l0.76-3.997l0.381-2.001l0.283-2.02c0.375-2.695,0.751-5.395,1.127-8.099c0.334-2.709,0.507-5.442,0.77-8.168l0.354-4.096
		l0.157-4.115l0.158-4.119c0.042-1.374,0.142-2.748,0.093-4.125c-0.033-2.752-0.067-5.508-0.1-8.265
		c-0.014-0.688-0.002-1.381-0.038-2.066l-0.129-2.052l-0.257-4.105l-0.255-4.107c-0.068-1.365-0.291-2.773-0.429-4.158l-0.945-8.345
		l-1.317-8.108c-0.24-1.36-0.399-2.736-0.704-4.083l-0.869-4.05l-0.868-4.048l-0.433-2.023c-0.151-0.673-0.35-1.334-0.522-2.001
		c-0.713-2.664-1.426-5.325-2.138-7.984c-0.325-1.339-0.793-2.634-1.204-3.946l-1.266-3.923l-1.263-3.919l-1.448-3.848
		c-0.99-2.554-1.896-5.138-2.95-7.656c-1.094-2.502-2.185-5-3.275-7.493l-0.818-1.868l-0.908-1.824l-1.812-3.643l-1.807-3.635
		c-0.588-1.217-1.301-2.367-1.939-3.555c-1.315-2.355-2.627-4.704-3.935-7.046c-1.418-2.278-2.832-4.55-4.242-6.815
		c-5.82-8.935-11.992-17.526-18.851-25.32c-0.84-0.989-1.678-1.976-2.514-2.96c-0.881-0.945-1.76-1.888-2.637-2.828
		c-1.767-1.869-3.471-3.785-5.268-5.592c-3.669-3.539-7.195-7.164-10.997-10.412c-0.933-0.832-1.863-1.661-2.791-2.488l-1.39-1.239
		l-1.442-1.17c-1.922-1.555-3.833-3.101-5.733-4.638c-0.477-0.382-0.944-0.775-1.428-1.145l-1.471-1.078
		c-0.98-0.718-1.956-1.434-2.929-2.147c-1.964-1.402-3.839-2.907-5.857-4.177c-1.987-1.316-3.96-2.622-5.92-3.919l-1.467-0.972
		l-1.506-0.897c-1.002-0.597-2.001-1.191-2.996-1.784c-0.995-0.593-1.986-1.183-2.974-1.771c-0.988-0.588-1.963-1.189-2.981-1.704
		c-2.011-1.076-4.006-2.143-5.985-3.202c-0.994-0.52-1.963-1.082-2.966-1.562c-1.005-0.478-2.005-0.954-3.001-1.427
		c-1.993-0.948-3.967-1.888-5.924-2.819c-1.98-0.878-3.974-1.674-5.932-2.504c-0.981-0.41-1.957-0.818-2.928-1.224
		c-0.969-0.413-1.936-0.815-2.923-1.151c-15.593-5.91-30.492-9.701-43.876-11.981c-1.678-0.262-3.329-0.52-4.952-0.773
		c-1.626-0.235-3.215-0.552-4.798-0.68c-3.158-0.333-6.203-0.654-9.128-0.962c-2.932-0.235-5.754-0.336-8.448-0.501
		c-1.348-0.067-2.664-0.162-3.949-0.202c-1.286-0.006-2.54-0.011-3.762-0.017c-2.445-0.011-4.758-0.022-6.935-0.032
		c-2.175,0.046-4.211,0.16-6.109,0.228c-1.899,0.078-3.656,0.149-5.266,0.215c-1.61,0.077-3.067,0.262-4.375,0.366
		C340.902,87.336,338.113,87.592,338.113,87.592z"/>
</g>
<g>
	<path fill="#FFFFFF" d="M188.846,177.952c0,0,1.703-2.223,4.896-6.391c0.811-1.032,1.662-2.227,2.698-3.465
		c1.046-1.231,2.188-2.575,3.422-4.028c1.244-1.445,2.544-3.035,4.001-4.667c1.506-1.585,3.107-3.27,4.799-5.049
		c0.846-0.891,1.715-1.805,2.607-2.743c0.916-0.913,1.891-1.811,2.87-2.752c1.978-1.859,4.002-3.859,6.199-5.846
		c2.248-1.933,4.587-3.945,7.013-6.033c1.19-1.074,2.52-2.02,3.817-3.053c1.31-1.018,2.642-2.053,3.996-3.104
		c10.934-8.267,24.069-16.64,39.379-23.878c15.27-7.3,32.766-13.27,51.796-17.22c2.363-0.575,4.794-0.883,7.216-1.325
		c1.214-0.206,2.432-0.413,3.654-0.621l1.836-0.312c0.615-0.091,1.234-0.155,1.853-0.233c2.476-0.3,4.968-0.603,7.474-0.907
		l1.883-0.225l1.896-0.139c1.266-0.093,2.536-0.186,3.809-0.279c5.089-0.481,10.256-0.495,15.468-0.623
		c2.606-0.018,5.225,0.11,7.856,0.159c1.316,0.034,2.634,0.068,3.955,0.102c1.318,0.095,2.639,0.189,3.963,0.284
		c21.188,1.369,42.933,5.803,63.882,13.544c2.602,1.01,5.209,2.022,7.821,3.036c2.595,1.055,5.131,2.262,7.706,3.389l3.848,1.731
		l3.767,1.914l3.771,1.917c1.252,0.649,2.533,1.248,3.743,1.978c2.451,1.405,4.904,2.811,7.358,4.219
		c0.61,0.357,1.235,0.692,1.834,1.068l1.787,1.147l3.574,2.296l3.576,2.298c1.201,0.754,2.318,1.63,3.481,2.44l6.915,4.955
		l6.617,5.294c1.086,0.894,2.199,1.706,3.262,2.668l3.201,2.838l3.198,2.838l1.598,1.419c0.527,0.478,1.016,0.986,1.526,1.478
		c2.019,1.983,4.036,3.965,6.051,5.944c1.03,0.968,1.953,2.039,2.917,3.069l2.865,3.112l2.861,3.109l2.707,3.237
		c1.781,2.174,3.63,4.289,5.346,6.502c1.682,2.24,3.362,4.477,5.038,6.709c13.126,18.07,23.267,37.813,30.314,57.841
		c0.449,1.249,0.898,2.495,1.345,3.739c0.39,1.263,0.779,2.523,1.168,3.781c0.759,2.52,1.589,5.006,2.277,7.521
		c1.285,5.054,2.676,10.03,3.586,15.06c0.254,1.251,0.508,2.499,0.761,3.743l0.379,1.863l0.292,1.874
		c0.385,2.495,0.767,4.975,1.147,7.441c0.091,0.617,0.198,1.23,0.276,1.847l0.196,1.852c0.13,1.232,0.26,2.461,0.39,3.686
		c0.229,2.452,0.59,4.875,0.675,7.306c1.341,19.39,0.328,37.849-2.576,54.524c-2.831,16.697-7.338,31.608-12.345,44.369
		c-0.647,1.588-1.283,3.15-1.909,4.686c-0.643,1.528-1.195,3.064-1.908,4.5c-1.354,2.9-2.659,5.696-3.913,8.383
		c-1.32,2.653-2.698,5.142-3.953,7.549c-0.641,1.197-1.242,2.379-1.874,3.507c-0.662,1.112-1.307,2.195-1.936,3.251
		c-1.256,2.11-2.446,4.106-3.565,5.985c-1.175,1.844-2.354,3.523-3.409,5.11c-1.065,1.58-2.05,3.042-2.952,4.382
		c-0.911,1.333-1.834,2.478-2.609,3.538c-3.151,4.201-4.831,6.442-4.831,6.442s1.588-2.306,4.565-6.63
		c0.731-1.089,1.603-2.266,2.458-3.632c0.846-1.372,1.769-2.87,2.766-4.488c0.989-1.623,2.086-3.345,3.192-5.219
		c1.057-1.903,2.181-3.926,3.368-6.063c0.593-1.068,1.202-2.164,1.827-3.288c0.594-1.141,1.156-2.334,1.757-3.542
		c1.175-2.43,2.469-4.94,3.699-7.612c1.163-2.702,2.374-5.514,3.63-8.43c0.663-1.443,1.164-2.984,1.755-4.516
		c0.574-1.54,1.157-3.105,1.75-4.696c4.561-12.787,8.554-27.632,11.034-44.122c0.19-1.025,0.312-2.065,0.427-3.112
		c0.121-1.046,0.244-2.097,0.366-3.153c0.235-2.113,0.517-4.242,0.721-6.398c0.146-2.162,0.293-4.344,0.442-6.545
		c0.074-1.1,0.149-2.205,0.224-3.315c0.073-1.11,0.057-2.229,0.09-3.351c0.047-2.243,0.093-4.505,0.141-6.786
		c0.049-1.14,0.002-2.284-0.027-3.433c-0.029-1.149-0.059-2.302-0.088-3.46c-0.029-1.157-0.059-2.319-0.088-3.486l-0.044-1.752
		l-0.129-1.755c-0.172-2.343-0.345-4.704-0.519-7.08c-0.119-2.381-0.513-4.753-0.774-7.152c-0.146-1.198-0.291-2.4-0.438-3.605
		l-0.22-1.811c-0.086-0.603-0.201-1.203-0.3-1.805c-0.41-2.409-0.823-4.832-1.238-7.269l-0.314-1.83l-0.4-1.819
		c-0.267-1.214-0.535-2.431-0.803-3.652c-0.974-4.905-2.401-9.756-3.691-14.687c-0.695-2.452-1.533-4.875-2.297-7.331
		c-0.391-1.225-0.783-2.453-1.175-3.684c-0.449-1.211-0.899-2.425-1.35-3.641c-3.438-9.796-7.907-19.383-12.848-28.833
		c-1.285-2.338-2.573-4.683-3.865-7.035c-1.402-2.287-2.808-4.581-4.217-6.881c-0.719-1.14-1.371-2.326-2.146-3.434l-2.285-3.356
		l-2.289-3.364l-1.146-1.685l-1.228-1.628c-1.64-2.171-3.284-4.345-4.93-6.524c-1.68-2.152-3.49-4.207-5.231-6.32l-2.646-3.147
		l-2.799-3.02l-2.801-3.024c-0.942-1.001-1.843-2.043-2.851-2.982c-1.97-1.923-3.942-3.847-5.915-5.773
		c-0.497-0.476-0.978-0.975-1.488-1.434l-1.542-1.359l-3.084-2.721l-3.084-2.724c-1.013-0.917-2.167-1.755-3.244-2.637l-6.509-5.186
		l-6.724-4.849c-1.131-0.792-2.216-1.652-3.385-2.389l-3.478-2.249l-3.476-2.249l-1.737-1.124c-0.583-0.369-1.19-0.696-1.784-1.046
		c-2.388-1.379-4.774-2.757-7.158-4.134c-1.177-0.717-2.423-1.302-3.642-1.939l-3.669-1.879l-3.664-1.878l-3.745-1.697
		c-2.506-1.105-4.973-2.292-7.499-3.328c-2.543-0.996-5.081-1.99-7.614-2.983l-1.9-0.742l-1.932-0.648l-3.857-1.294l-3.848-1.292
		c-1.277-0.445-2.594-0.754-3.885-1.143c-2.595-0.735-5.183-1.468-7.765-2.2c-2.614-0.608-5.22-1.215-7.818-1.819
		c-10.434-2.202-20.873-3.913-31.234-4.574c-1.293-0.105-2.583-0.211-3.871-0.315c-1.291-0.045-2.579-0.09-3.865-0.135
		c-2.571-0.071-5.131-0.222-7.679-0.229c-5.097,0.092-10.153,0.022-15.139,0.414c-1.248,0.072-2.492,0.143-3.733,0.214l-1.859,0.107
		l-1.846,0.192c-2.459,0.26-4.904,0.518-7.333,0.774c-0.607,0.068-1.216,0.12-1.819,0.2l-1.803,0.278
		c-1.2,0.185-2.397,0.369-3.59,0.553c-2.38,0.397-4.771,0.659-7.095,1.188c-2.335,0.475-4.654,0.946-6.957,1.414l-1.724,0.35
		l-1.699,0.431c-1.131,0.287-2.257,0.573-3.38,0.857c-1.123,0.285-2.241,0.568-3.355,0.851c-1.114,0.283-2.229,0.547-3.313,0.903
		c-2.183,0.661-4.349,1.317-6.496,1.968c-1.071,0.335-2.153,0.623-3.202,0.993c-1.048,0.373-2.092,0.743-3.131,1.113
		c-2.08,0.738-4.141,1.47-6.182,2.195c-2.021,0.779-3.994,1.626-5.965,2.424c-0.984,0.404-1.962,0.805-2.936,1.205
		c-0.977,0.393-1.945,0.793-2.881,1.252c-15.205,6.847-28.42,14.701-39.496,22.553c-1.372,1.001-2.721,1.986-4.048,2.955
		c-1.316,0.984-2.664,1.883-3.873,2.911c-2.469,1.998-4.848,3.924-7.135,5.774c-2.24,1.907-4.307,3.831-6.328,5.619
		c-1,0.905-1.998,1.769-2.935,2.65c-0.914,0.905-1.804,1.788-2.672,2.648c-1.736,1.721-3.38,3.349-4.926,4.882
		c-1.506,1.57-2.865,3.091-4.159,4.481c-1.288,1.398-2.48,2.691-3.572,3.876c-1.084,1.193-1.984,2.354-2.835,3.353
		C190.637,175.799,188.846,177.952,188.846,177.952z"/>
</g>
</svg>
